<svg width="45" height="40" viewBox="0 0 45 40" fill="none" xmlns="http://www.w3.org/2000/svg">
<path d="M44.4805 20C44.4805 17.4635 43.1113 14.2485 35.7069 15.0308L35.0403 15.0935C39.9419 11.0249 38.8072 7.99328 37.1854 6.23215C35.4669 4.36676 32.2814 2.92938 27.3658 8.52203L27.2175 8.69193C27.9682 1.35969 24.7672 0 22.2403 0C19.7133 0 16.5123 1.35969 17.2631 8.69193L17.1147 8.52203C12.1992 2.92988 9.01368 4.36676 7.29514 6.23215C5.67333 7.99278 4.53867 11.0244 9.44018 15.0935L8.77362 15.0308C1.36922 14.248 0 17.4635 0 20C0 22.5365 1.36922 25.7515 8.77362 24.9692L9.44018 24.9065C4.53867 28.9751 5.67333 32.0067 7.29514 33.7679C9.01368 35.6332 12.1992 37.0706 17.1147 31.478L17.2631 31.3081C16.5128 38.6408 19.7133 40 22.2403 40C24.7672 40 27.9682 38.6403 27.2175 31.3081L27.3658 31.478C32.2814 37.0701 35.4669 35.6332 37.1854 33.7679C38.8072 32.0072 39.9419 28.9756 35.0403 24.9065L35.7069 24.9692C43.1113 25.752 44.4805 22.5365 44.4805 20ZM32.114 28.4468C32.5355 28.2614 33.0452 28.3291 33.4055 28.6614C33.8906 29.1084 33.9217 29.8642 33.4747 30.3493C33.0276 30.8345 32.2718 30.8655 31.7867 30.4185C31.4264 30.0867 31.3166 29.584 31.4674 29.149L26.6757 24.7346C25.4643 25.2062 24.1212 25.5215 22.7179 25.5806V31.8649C23.1399 32.0493 23.4351 32.4698 23.4351 32.96C23.4351 33.6195 22.9003 34.1548 22.2403 34.1548C21.5802 34.1548 21.0455 33.62 21.0455 32.96C21.0455 32.4698 21.3407 32.0488 21.7626 31.8649V25.5806C20.3588 25.5215 19.0157 25.2062 17.8048 24.7346L13.0131 29.149C13.1634 29.5845 13.0542 30.0867 12.6938 30.4185C12.2087 30.8655 11.4529 30.8345 11.0059 30.3493C10.5588 29.8642 10.5899 29.1084 11.075 28.6614C11.4354 28.3296 11.9451 28.2614 12.3666 28.4468L16.8491 24.3176C14.6995 23.2762 13.0958 21.7697 12.5294 20.4771H6.85511C6.67068 20.8991 6.25019 21.1943 5.76004 21.1943C5.10049 21.1943 4.56523 20.6595 4.56523 19.9995C4.56523 19.3394 5.09999 18.8047 5.76004 18.8047C6.25019 18.8047 6.67118 19.0999 6.85511 19.5219H12.5294C13.0958 18.2293 14.6995 16.7228 16.8491 15.6814L12.3666 11.5521C11.9451 11.7381 11.4354 11.6699 11.075 11.3376C10.5899 10.8906 10.5588 10.1348 11.0059 9.64968C11.4529 9.16454 12.2087 9.13346 12.6938 9.58051C13.0542 9.91229 13.1639 10.415 13.0131 10.85L17.8048 15.2644C19.0162 14.7928 20.3593 14.4775 21.7626 14.4184V8.13412C21.3407 7.94968 21.0455 7.52919 21.0455 7.03904C21.0455 6.37949 21.5802 5.84423 22.2403 5.84423C22.9003 5.84423 23.4351 6.37899 23.4351 7.03904C23.4351 7.52919 23.1399 7.95018 22.7179 8.13412V14.4184C24.1217 14.4775 25.4648 14.7928 26.6757 15.2644L31.4674 10.85C31.3171 10.4145 31.4264 9.91229 31.7867 9.58051C32.2718 9.13346 33.0276 9.16454 33.4747 9.64968C33.9217 10.1348 33.8906 10.8906 33.4055 11.3376C33.0452 11.6694 32.5355 11.7376 32.114 11.5521L27.6314 15.6814C29.781 16.7228 31.3848 18.2293 31.9511 19.5219H37.6254C37.8099 19.0999 38.2303 18.8047 38.7205 18.8047C39.38 18.8047 39.9153 19.3394 39.9153 19.9995C39.9153 20.6595 39.3805 21.1943 38.7205 21.1943C38.2303 21.1943 37.8094 20.8991 37.6254 20.4771H31.9511C31.3848 21.7697 29.781 23.2762 27.6314 24.3176L32.114 28.4468Z" fill="#282998"/>
<path d="M23.5077 18.495C22.8076 18.495 22.2403 17.9276 22.2403 17.2275C22.2403 16.5273 22.8076 15.96 23.5077 15.96C23.5293 15.96 23.5503 15.9605 23.5714 15.9615C23.1659 15.7034 22.7154 15.5596 22.2403 15.5596C20.4741 15.5596 19.0422 17.5477 19.0422 20C19.0422 22.4523 20.4741 24.4404 22.2403 24.4404C24.0064 24.4404 25.4383 22.4523 25.4383 20C25.4383 18.9796 25.1902 18.0399 24.7737 17.2901C24.7411 17.9612 24.1868 18.495 23.5077 18.495Z" fill="#282998"/>
</svg>
